<svg width="755" height="204" viewBox="0 0 755 204" fill="none" xmlns="http://www.w3.org/2000/svg">
<path d="M159.883 130.579C159.898 138.742 157.34 146.726 152.532 153.52C147.724 160.315 140.882 165.614 132.873 168.748C124.864 171.881 116.046 172.709 107.538 171.124C99.0291 169.54 91.2108 165.616 85.0722 159.849C78.9336 154.081 74.7509 146.729 73.0536 138.724C71.3557 130.718 72.2196 122.418 75.5354 114.875C78.8517 107.332 84.4705 100.884 91.6811 96.3467C98.8921 91.8098 107.371 89.3882 116.045 89.3882C127.659 89.3882 138.798 93.7258 147.017 101.448C155.237 109.171 159.864 119.648 159.883 130.579Z" fill="#F6F8F9"/>
<path d="M191.039 124.67C191.039 124.224 191.039 123.778 191.039 123.269C191.039 122.76 191.039 120.849 190.593 119.639C190.211 117.219 189.702 114.8 189.129 112.443C188.555 110.087 188.237 109.259 187.664 107.667C187.091 106.076 186.9 105.502 186.454 104.42C185.944 102.812 185.283 101.255 184.48 99.7712C184.039 98.6671 183.507 97.6021 182.888 96.5872C181.979 94.764 180.958 92.9988 179.831 91.3018L177.921 89.2004C176.254 86.7663 174.424 84.4473 172.445 82.2593C172.445 81.8772 171.808 81.4315 171.426 81.0494C171.044 80.6673 169.643 78.948 168.624 77.9928C173.929 69.8717 176.741 60.3747 176.711 50.6742C176.728 44.032 175.434 37.4517 172.904 31.3103C170.373 25.1689 166.656 19.587 161.966 14.8843C157.275 10.1817 151.702 6.45062 145.567 3.90489C139.432 1.35917 132.855 0.0487946 126.213 0.0488157C124.962 -0.0162719 123.707 -0.0162719 122.456 0.0488157H119.718C121.076 0.0488157 122.414 0.0488157 123.73 0.0488157H32.2218C26.8737 0.61492 21.9242 3.13983 18.3265 7.13726C14.7288 11.1347 12.7374 16.3219 12.7358 21.6999V130.72C13.1081 124.751 14.2862 118.86 16.2382 113.208C22.4352 98.1041 31.7184 84.4613 43.4931 73.1531C52.2812 64.8031 62.0036 57.4952 72.4674 51.3747C73.5348 50.6768 74.6403 50.039 75.7787 49.4643C75.7787 48.9548 75.7787 48.3817 75.7787 47.8086C75.7471 47.4697 75.7471 47.1286 75.7787 46.7897V47.3628C75.7787 46.726 75.7787 46.0892 75.7787 45.4524C75.7787 46.8109 75.7787 48.1482 75.7787 49.4643H76.2245C79.2811 47.6812 82.5925 46.0256 85.5854 44.4336C88.5784 42.8416 92.3355 41.0585 95.7742 39.4665C95.7742 36.5373 95.2647 33.7354 95.01 30.5514H130.607L111.376 57.3605L110.739 58.2521L107.237 63.1554L104.944 59.0162V58.6341V58.2521L101.633 52.2662C99.5949 53.3487 97.6846 54.495 95.7105 55.7049L91.1892 58.5068L89.1515 59.3983L86.2859 61.3724C85.0778 62.0955 83.9087 62.882 82.7835 63.7285C81.4462 64.6837 80.1726 65.7026 78.899 66.7215L79.2811 67.613L78.899 66.7851H78.5806C77.6042 67.5068 76.649 68.271 75.7151 69.0776L71.7669 72.6437C70.2443 74.028 68.7987 75.4949 67.4367 77.0376H67.1183C65.4626 78.8843 63.807 80.8583 62.3423 82.8324C61.8329 83.4055 61.3871 84.0423 60.9414 84.6154C54.8091 92.9513 50.2551 102.34 47.505 112.316C46.5364 115.853 45.792 119.447 45.2762 123.078C45.2762 125.37 45.2762 127.727 45.2762 130.083C45.1012 145.116 49.5696 159.838 58.0717 172.237C66.5737 184.637 78.695 194.111 92.7812 199.366L95.4558 200.258C96.8567 200.767 98.2577 201.149 99.6586 201.531L102.97 202.359L106.6 202.996C110.355 203.531 114.142 203.808 117.935 203.824H118.954C120.673 203.824 122.52 203.824 124.239 203.505H126.595H127.359L130.289 202.996L131.881 202.678L136.147 201.786L137.93 201.277L138.949 200.958L144.935 198.793L146.017 198.347L148.756 197.137L152.959 195.036C153.85 194.527 154.805 194.081 155.697 193.508C157.75 192.347 159.709 191.027 161.555 189.56L163.848 187.777C166.769 185.363 169.475 182.699 171.935 179.817C173.621 178.021 175.175 176.106 176.584 174.085C177.412 173.003 178.176 171.92 178.94 170.774L181.041 167.335C182.379 165.043 183.588 162.623 184.735 160.14C187.519 153.761 189.425 147.035 190.402 140.144C190.402 138.743 190.721 137.279 190.848 135.878C190.975 134.477 190.848 132.439 190.848 130.72V130.21C191.039 128.363 191.039 126.517 191.039 124.67ZM117.935 168.227C110.516 168.227 103.265 166.027 97.0967 161.906C90.9287 157.784 86.1213 151.927 83.2824 145.073C80.4436 138.219 79.7008 130.678 81.148 123.402C82.5953 116.127 86.1675 109.443 91.413 104.198C96.6585 98.9524 103.342 95.3801 110.617 93.9329C117.893 92.4857 125.435 93.2284 132.288 96.0673C139.142 98.9061 145 103.714 149.121 109.882C153.242 116.05 155.442 123.301 155.442 130.72C155.442 140.667 151.49 150.207 144.456 157.241C137.422 164.275 127.882 168.227 117.935 168.227Z" fill="#6F6ADC"/>
<path d="M110.547 125.369L119.526 133.393C120.419 134.188 120.96 135.305 121.032 136.498C121.103 137.692 120.699 138.865 119.908 139.761C119.113 140.648 118.003 141.191 116.814 141.274C115.626 141.357 114.451 140.975 113.54 140.207L104.689 132.183C103.811 131.379 103.28 130.265 103.208 129.077C103.137 127.888 103.531 126.719 104.306 125.815C105.08 124.936 106.168 124.397 107.335 124.314C108.503 124.23 109.657 124.609 110.547 125.369Z" fill="#6F6ADC" fill-opacity="0.2"/>
<path d="M131.69 128.171L121.629 139.315C120.624 140.422 119.221 141.083 117.728 141.155C116.235 141.227 114.775 140.702 113.669 139.697C112.563 138.692 111.901 137.289 111.829 135.797C111.758 134.304 112.282 132.844 113.287 131.737L123.412 120.593C123.907 120.042 124.507 119.594 125.176 119.276C125.846 118.958 126.572 118.776 127.312 118.741C128.052 118.705 128.792 118.817 129.489 119.069C130.186 119.322 130.826 119.71 131.372 120.211C132.447 121.238 133.081 122.642 133.14 124.127C133.2 125.612 132.68 127.062 131.69 128.171Z" fill="#6F6ADC"/>
<path d="M711.819 196.009C685.824 196.009 669.217 179.321 669.217 151.08C669.217 123.24 686.065 106.312 711.819 106.312C737.572 106.312 754.421 123.16 754.421 151.08C754.421 179.401 737.813 196.009 711.819 196.009ZM711.819 178.118C723.292 178.118 730.592 168.41 730.592 151.16C730.592 134.071 723.211 124.203 711.819 124.203C700.426 124.203 692.965 134.071 692.965 151.16C692.965 168.41 700.266 178.118 711.819 178.118Z" fill="white"/>
<path d="M641.701 97.4867C634.641 97.4867 629.186 92.1113 629.186 85.372C629.186 78.5525 634.641 73.2573 641.701 73.2573C648.762 73.2573 654.217 78.5525 654.217 85.372C654.217 92.1113 648.762 97.4867 641.701 97.4867ZM641.701 195.848C634.4 195.848 629.988 191.275 629.988 183.653V118.667C629.988 111.045 634.4 106.392 641.701 106.392C648.922 106.392 653.415 111.045 653.415 118.667V183.653C653.415 191.275 648.922 195.848 641.701 195.848Z" fill="white"/>
<path d="M598.781 195.848C591.962 195.848 587.068 191.676 587.068 183.653V88.9021C587.068 80.8791 591.962 76.627 598.781 76.627C605.681 76.627 610.495 80.8791 610.495 88.9021V183.653C610.495 191.676 605.681 195.848 598.781 195.848Z" fill="white"/>
<path d="M528.504 196.009C502.509 196.009 485.902 179.321 485.902 151.08C485.902 123.24 502.75 106.312 528.504 106.312C554.257 106.312 571.106 123.16 571.106 151.08C571.106 179.401 554.498 196.009 528.504 196.009ZM528.504 178.118C539.977 178.118 547.277 168.41 547.277 151.16C547.277 134.071 539.896 124.203 528.504 124.203C517.111 124.203 509.65 134.071 509.65 151.16C509.65 168.41 516.951 178.118 528.504 178.118Z" fill="white"/>
<path d="M412.094 195.688C404.472 195.688 399.979 191.034 399.979 183.092V90.9881C399.979 83.0454 404.472 78.3921 412.094 78.3921H466.249C472.908 78.3921 477.24 82.1629 477.24 88.4208C477.24 94.6787 472.827 98.4495 466.249 98.4495H424.208V129.418H462.317C468.575 129.418 472.667 133.028 472.667 138.965C472.667 144.983 468.656 148.593 462.317 148.593H424.208V183.092C424.208 191.034 419.715 195.688 412.094 195.688Z" fill="white"/>
<path d="M342.939 196.009C316.062 196.009 300.257 179.401 300.257 151.562C300.257 123.882 316.383 106.312 341.816 106.312C366.206 106.312 382.572 123 382.572 146.347C382.572 152.845 378.882 156.536 372.383 156.536H323.283V157.579C323.283 170.335 330.985 178.679 342.859 178.679C351.443 178.679 357.059 175.791 363.398 168.329C365.885 165.762 367.971 164.88 371.019 164.88C376.074 164.88 380.166 168.089 380.166 173.464C380.166 175.309 379.604 177.235 378.561 179.16C372.865 189.751 359.546 196.009 342.939 196.009ZM323.523 142.175H360.028C359.546 130.943 352.326 123.642 342.056 123.642C331.787 123.642 324.326 131.183 323.523 142.175Z" fill="white"/>
<path d="M248.352 196.009C221.475 196.009 205.669 179.401 205.669 151.562C205.669 123.882 221.796 106.312 247.228 106.312C271.618 106.312 287.985 123 287.985 146.347C287.985 152.845 284.294 156.536 277.796 156.536H228.695V157.579C228.695 170.335 236.397 178.679 248.271 178.679C256.856 178.679 262.472 175.791 268.81 168.329C271.297 165.762 273.383 164.88 276.432 164.88C281.486 164.88 285.578 168.089 285.578 173.464C285.578 175.309 285.016 177.235 283.974 179.16C278.277 189.751 264.959 196.009 248.352 196.009ZM228.936 142.175H265.44C264.959 130.943 257.738 123.642 247.469 123.642C237.2 123.642 229.738 131.183 228.936 142.175Z" fill="white"/>
</svg>
