<svg width="133" height="44" viewBox="0 0 133 44" fill="none" xmlns="http://www.w3.org/2000/svg">
<mask id="mask0_119_6418" style="mask-type:luminance" maskUnits="userSpaceOnUse" x="0" y="1" width="133" height="42">
<path d="M133 1.40411H0V42.6764H133V1.40411Z" fill="white"/>
</mask>
<g mask="url(#mask0_119_6418)">
<path d="M45.9671 39.2844C49.1012 39.2844 51.6162 38.0979 52.6868 36.1116C52.8728 35.7802 52.9747 35.4082 52.9834 35.0283C52.9858 34.807 52.9422 34.5877 52.8555 34.3841C52.7687 34.1806 52.6407 33.9973 52.4795 33.8457C52.3183 33.6942 52.1274 33.5778 51.9188 33.5038C51.7103 33.4299 51.4887 33.3999 51.268 33.416C50.9944 33.4088 50.7226 33.4629 50.4725 33.5745C50.2225 33.6861 50.0008 33.8523 49.8235 34.0609C49.3909 34.6821 48.8109 35.1863 48.1358 35.5284C47.4605 35.8705 46.711 36.0399 45.9542 36.0214C45.4403 36.0351 44.9294 35.9391 44.4557 35.7396C43.9819 35.5401 43.5561 35.2417 43.2069 34.8644C42.8577 34.4872 42.5931 34.0396 42.4308 33.5519C42.2684 33.0641 42.2121 32.5473 42.2655 32.036V31.8425H51.5904C51.8488 31.8691 52.1098 31.8375 52.3544 31.7501C52.5989 31.6627 52.8208 31.5218 53.0038 31.3376C53.1868 31.1533 53.3263 30.9304 53.412 30.6853C53.4978 30.4402 53.5276 30.1789 53.4993 29.9208C53.5396 28.9032 53.3652 27.8885 52.9878 26.9426C52.6104 25.9967 52.0381 25.1407 51.3083 24.4304C50.5785 23.72 49.7075 23.1712 48.7517 22.8194C47.7959 22.4677 46.7769 22.3209 45.7608 22.3886C40.9757 22.3886 37.9319 25.6904 37.9319 30.9139C37.9319 36.1374 40.9113 39.2844 45.9671 39.2844ZM42.317 29.134C42.3205 28.2093 42.6903 27.3235 43.3453 26.6709C44.0005 26.0182 44.8876 25.6517 45.8124 25.6517C46.267 25.6442 46.7184 25.7299 47.1385 25.9036C47.5588 26.0773 47.9389 26.3351 48.2556 26.6615C48.5722 26.9878 48.8187 27.3756 48.9796 27.8008C49.1406 28.2261 49.2127 28.6799 49.1915 29.134H42.317ZM63.1983 39.2844C66.3324 39.2844 68.8346 38.0979 69.905 36.1116C70.1003 35.7834 70.207 35.4101 70.2146 35.0283C70.2171 34.8058 70.1732 34.5853 70.0857 34.3808C69.9982 34.1763 69.8689 33.9924 69.7063 33.8406C69.5437 33.689 69.3511 33.5728 69.1411 33.4997C68.931 33.4265 68.708 33.3981 68.4863 33.416C68.2146 33.4088 67.9446 33.4631 67.6967 33.5747C67.4489 33.6864 67.2294 33.8526 67.0547 34.0609C66.6196 34.6796 66.0392 35.182 65.3646 35.5238C64.6899 35.8656 63.9416 36.0365 63.1854 36.0214C62.6715 36.0351 62.1606 35.9391 61.6869 35.7396C61.213 35.5401 60.7874 35.2417 60.4382 34.8644C60.089 34.4872 59.8243 34.0396 59.6619 33.5519C59.4996 33.0641 59.4433 32.5473 59.4967 32.036V31.8425H68.7442C69.0036 31.8712 69.2661 31.8412 69.5122 31.7547C69.7584 31.6683 69.982 31.5276 70.1665 31.3431C70.351 31.1586 70.4917 30.935 70.5781 30.6888C70.6646 30.4426 70.6946 30.1802 70.666 29.9208C70.7062 28.9032 70.532 27.8885 70.1545 26.9426C69.777 25.9967 69.2048 25.1407 68.475 24.4304C67.7452 23.72 66.8742 23.1712 65.9184 22.8194C64.9627 22.4677 63.9436 22.3209 62.9274 22.3886C58.1295 22.3886 55.0986 25.6904 55.0986 30.9139C55.0986 36.1374 58.1166 39.2844 63.1983 39.2844ZM59.5096 29.134C59.513 28.2093 59.8828 27.3235 60.5379 26.6709C61.193 26.0182 62.08 25.6517 63.0048 25.6517C63.46 25.6443 63.912 25.73 64.3328 25.9035C64.7537 26.077 65.1347 26.3348 65.4524 26.6609C65.77 26.987 66.0177 27.3746 66.1801 27.7999C66.3425 28.2252 66.4163 28.6792 66.3969 29.134H59.5096ZM74.0967 34.7961C74.0967 37.6465 75.5928 39.1168 78.5464 39.1168H78.6754C80.5327 39.1168 81.7966 38.4461 81.7966 37.1564C81.7966 36.1246 81.2033 35.6731 80.1199 35.5442H79.8362C78.8818 35.4668 78.5464 34.9895 78.5464 33.8417V26.1032H80.0941C80.3241 26.1234 80.5557 26.0957 80.7743 26.0216C80.993 25.9475 81.1938 25.8288 81.3641 25.6729C81.5343 25.5171 81.6702 25.3275 81.7632 25.1162C81.8563 24.9049 81.9043 24.6766 81.9043 24.4457C81.9043 24.2149 81.8563 23.9867 81.7632 23.7754C81.6702 23.5641 81.5343 23.3745 81.3641 23.2187C81.1938 23.0628 80.993 22.944 80.7743 22.8699C80.5557 22.7959 80.3241 22.7682 80.0941 22.7884H78.5464V20.9827C78.5697 20.6781 78.5298 20.3719 78.4292 20.0833C78.3286 19.7949 78.1695 19.5302 77.9618 19.3061C77.7541 19.0819 77.5024 18.903 77.2223 18.7807C76.9423 18.6585 76.6401 18.5954 76.3345 18.5954C76.0289 18.5954 75.7267 18.6585 75.4466 18.7807C75.1666 18.903 74.9149 19.0819 74.7072 19.3061C74.4995 19.5302 74.3404 19.7949 74.2398 20.0833C74.1392 20.3719 74.0992 20.6781 74.1225 20.9827V22.7884H73.2584C73.0284 22.7682 72.7968 22.7959 72.5782 22.8699C72.3596 22.944 72.1588 23.0628 71.9885 23.2187C71.8182 23.3745 71.6823 23.5641 71.5893 23.7754C71.4963 23.9867 71.4482 24.2149 71.4482 24.4457C71.4482 24.6766 71.4963 24.9049 71.5893 25.1162C71.6823 25.3275 71.8182 25.5171 71.9885 25.6729C72.1588 25.8288 72.3596 25.9475 72.5782 26.0216C72.7968 26.0957 73.0284 26.1234 73.2584 26.1032H74.0967V34.7961ZM86.2076 20.7506C86.6537 20.7329 87.0848 20.5848 87.4477 20.3245C87.8105 20.0643 88.089 19.7034 88.2488 19.2865C88.4086 18.8697 88.4426 18.415 88.3467 17.9789C88.2508 17.5429 88.0291 17.1446 87.709 16.8332C87.389 16.5219 86.9847 16.3112 86.5462 16.2273C86.1076 16.1434 85.6541 16.1899 85.2418 16.3611C84.8294 16.5324 84.4763 16.8207 84.2261 17.1905C83.976 17.5605 83.8398 17.9955 83.8345 18.4419C83.8343 18.7507 83.8961 19.0562 84.0161 19.3406C84.1362 19.625 84.312 19.8824 84.5333 20.0976C84.7545 20.3129 85.0167 20.4815 85.3043 20.5937C85.5919 20.7059 85.899 20.7592 86.2076 20.7506ZM86.2076 39.2716C86.5104 39.2922 86.814 39.2461 87.0972 39.1368C87.3802 39.0274 87.636 38.8573 87.8462 38.6384C88.0565 38.4196 88.2162 38.1572 88.3141 37.87C88.4121 37.5828 88.4458 37.2775 88.4131 36.9758V24.7101C88.4131 24.1252 88.1807 23.5643 87.7671 23.1506C87.3535 22.737 86.7925 22.5047 86.2076 22.5047C85.6227 22.5047 85.0617 22.737 84.6481 23.1506C84.2345 23.5643 84.0021 24.1252 84.0021 24.7101V36.95C83.967 37.2522 83.9992 37.5584 84.0963 37.8467C84.1934 38.135 84.353 38.3982 84.5638 38.6177C84.7746 38.8371 85.0312 39.0071 85.3154 39.1157C85.5995 39.2243 85.9043 39.2687 86.2076 39.2458V39.2716ZM93.5722 39.2716C93.8748 39.2922 94.1783 39.2461 94.4613 39.1368C94.7451 39.0274 95.0004 38.8573 95.2111 38.6384C95.4208 38.4196 95.5806 38.1572 95.6788 37.87C95.777 37.5828 95.81 37.2775 95.7779 36.9758V29.2372C95.7395 28.8459 95.7841 28.4509 95.9082 28.0779C96.0332 27.7049 96.234 27.362 96.4991 27.0716C96.7642 26.7811 97.0864 26.5494 97.4471 26.3915C97.8068 26.2336 98.196 26.1529 98.5896 26.1547C98.9484 26.1373 99.3073 26.1983 99.6402 26.3335C99.9732 26.4686 100.273 26.6746 100.519 26.9373C100.764 27.1999 100.949 27.5129 101.061 27.8544C101.174 28.1959 101.21 28.5577 101.168 28.9148V37.0274C101.146 37.3199 101.184 37.614 101.28 37.8912C101.376 38.1683 101.529 38.4226 101.728 38.638C101.927 38.8534 102.169 39.0253 102.438 39.1428C102.706 39.2603 102.997 39.321 103.29 39.321C103.584 39.321 103.874 39.2603 104.143 39.1428C104.412 39.0253 104.653 38.8534 104.853 38.638C105.052 38.4226 105.205 38.1683 105.301 37.8912C105.397 37.614 105.435 37.3199 105.412 37.0274V29.0954C105.372 28.7099 105.414 28.3202 105.536 27.9523C105.657 27.5844 105.856 27.2465 106.118 26.9611C106.38 26.6758 106.7 26.4493 107.057 26.2969C107.413 26.1446 107.798 26.0698 108.185 26.0774C109.901 26.0774 110.842 27.0962 110.842 28.9793V36.95C110.808 37.2499 110.839 37.5537 110.935 37.84C111.03 38.1264 111.188 38.3882 111.395 38.6071C111.603 38.826 111.857 38.9967 112.138 39.107C112.419 39.2174 112.721 39.2647 113.021 39.2458C113.326 39.268 113.631 39.2234 113.917 39.115C114.202 39.0066 114.46 38.837 114.673 38.6182C114.885 38.3994 115.048 38.1366 115.148 37.8484C115.248 37.5603 115.284 37.2536 115.253 36.95V27.9217C115.25 26.6848 114.821 25.4867 114.038 24.5292C113.255 23.5717 112.166 22.9132 110.955 22.6649C109.743 22.4165 108.483 22.5933 107.386 23.1656C106.29 23.7377 105.424 24.6704 104.935 25.8065H104.858C104.626 24.8042 104.044 23.9179 103.216 23.3075C102.388 22.6972 101.369 22.4033 100.344 22.4789C99.3278 22.4552 98.3308 22.7565 97.4979 23.3387C96.6651 23.921 96.0394 24.7539 95.7127 25.7162H95.6226V24.6199C95.6226 24.0555 95.3985 23.5142 94.9995 23.1151C94.6005 22.716 94.0596 22.4918 93.4946 22.4918C92.9304 22.4918 92.3886 22.716 91.9896 23.1151C91.5906 23.5142 91.3666 24.0555 91.3666 24.6199V36.9242C91.33 37.2279 91.3603 37.5361 91.4567 37.8265C91.5531 38.117 91.712 38.3826 91.9227 38.6044C92.1333 38.8263 92.3904 38.9988 92.676 39.1097C92.9608 39.2205 93.2669 39.267 93.5722 39.2458V39.2716ZM125.532 39.2716C128.666 39.2716 131.168 38.0849 132.252 36.0988C132.438 35.7673 132.54 35.3953 132.548 35.0153C132.551 34.793 132.507 34.5725 132.42 34.368C132.332 34.1635 132.203 33.9795 132.04 33.8278C131.878 33.676 131.685 33.5599 131.475 33.4868C131.265 33.4137 131.043 33.3852 130.82 33.4032C130.549 33.3959 130.278 33.4502 130.031 33.5619C129.783 33.6735 129.563 33.8397 129.388 34.0481C128.955 34.6676 128.374 35.1705 127.7 35.5124C127.025 35.8544 126.276 36.0247 125.52 36.0084C125.006 36.0223 124.494 35.9262 124.021 35.7266C123.547 35.5271 123.121 35.2287 122.772 34.8515C122.423 34.4742 122.158 34.0267 121.996 33.539C121.833 33.0512 121.777 32.5344 121.831 32.0231V31.8425H131.078C131.338 31.8712 131.6 31.8412 131.847 31.7547C132.092 31.6683 132.316 31.5276 132.501 31.3431C132.685 31.1586 132.826 30.935 132.913 30.6888C132.999 30.4426 133.029 30.1802 133 29.9208C133.04 28.9032 132.866 27.8885 132.489 26.9426C132.111 25.9967 131.539 25.1407 130.809 24.4304C130.079 23.72 129.208 23.1712 128.252 22.8194C127.297 22.4677 126.278 22.3209 125.262 22.3886C120.463 22.3886 117.433 25.6904 117.433 30.9139C117.433 36.1374 120.477 39.2844 125.532 39.2844V39.2716ZM121.882 29.134C121.881 28.6763 121.97 28.2227 122.144 27.7994C122.318 27.3761 122.575 26.9916 122.898 26.6678C123.222 26.3442 123.607 26.0877 124.03 25.9133C124.453 25.7389 124.907 25.65 125.365 25.6517C125.82 25.6443 126.271 25.73 126.693 25.9035C127.113 26.077 127.494 26.3348 127.812 26.6609C128.13 26.987 128.377 27.3746 128.54 27.7999C128.702 28.2252 128.776 28.6792 128.757 29.134H121.882Z" fill="white"/>
<path d="M28.9036 27.8702C28.9061 29.3732 28.4628 30.8431 27.6296 32.0941C26.7964 33.3451 25.6109 34.3208 24.2229 34.8978C22.8351 35.4746 21.3072 35.627 19.8328 35.3353C18.3584 35.0437 17.0035 34.3211 15.9398 33.2593C14.8761 32.1973 14.1513 30.8437 13.8572 29.3699C13.5629 27.8959 13.7126 26.3677 14.2872 24.9789C14.8619 23.5901 15.8355 22.4028 17.085 21.5675C18.3346 20.7322 19.8039 20.2863 21.3069 20.2863C23.3194 20.2863 25.2497 21.0849 26.674 22.5068C28.0983 23.9286 28.9002 25.8576 28.9036 27.8702Z" fill="url(#paint0_linear_119_6418)"/>
<path d="M28.9036 27.8702C28.9061 29.3732 28.4628 30.8431 27.6296 32.0941C26.7964 33.3451 25.6109 34.3208 24.2229 34.8978C22.8351 35.4746 21.3072 35.627 19.8328 35.3353C18.3584 35.0437 17.0035 34.3211 15.9398 33.2593C14.8761 32.1973 14.1513 30.8437 13.8572 29.3699C13.5629 27.8959 13.7126 26.3677 14.2872 24.9789C14.8619 23.5901 15.8355 22.4028 17.085 21.5675C18.3346 20.7322 19.8039 20.2863 21.3069 20.2863C23.3194 20.2863 25.2497 21.0849 26.674 22.5068C28.0983 23.9286 28.9002 25.8576 28.9036 27.8702Z" fill="white"/>
<path d="M36.1132 26.645C36.1132 26.5546 36.1132 26.4644 36.1132 26.3612V26.3612C36.1132 25.8664 35.989 25.3789 35.8895 24.8942C35.8394 24.6501 35.7845 24.4077 35.7263 24.1686C35.6103 23.6914 35.5458 23.5238 35.4297 23.2013C35.3136 22.8788 35.2749 22.7628 35.1847 22.5435C35.0813 22.2178 34.9474 21.9026 34.7849 21.602C34.6956 21.3784 34.5878 21.1626 34.4624 20.9571C34.3639 20.7595 34.2589 20.5653 34.1476 20.3747C33.9544 20.044 33.714 19.7443 33.4564 19.461V19.461C33.1802 19.0579 32.8821 18.6704 32.5634 18.3002C32.4262 18.1408 32.2896 17.9588 32.1408 17.8101V17.8101V17.8101C31.7972 17.4665 31.7721 16.8968 32.003 16.4692C32.799 14.9954 33.2165 13.3418 33.2113 11.6579C33.2147 10.3127 32.9527 8.97989 32.4402 7.73602C31.9277 6.49215 31.1748 5.36159 30.2248 4.40913C29.2747 3.45665 28.1461 2.70097 26.9035 2.18537C25.6609 1.66975 24.3288 1.40435 22.9835 1.40436C22.7301 1.39117 22.476 1.39117 22.2225 1.40436H21.6679C21.9431 1.40436 22.2139 1.40436 22.4805 1.40436H3.94666C2.86346 1.51902 1.86099 2.03041 1.13232 2.84004C0.403653 3.64968 0.000318453 4.70029 0 5.78954V27.8702C0.075391 26.6614 0.314012 25.4682 0.709367 24.3234C1.9645 21.2644 3.84469 18.5012 6.22954 16.2108C8.00946 14.5196 9.97866 13.0394 12.0979 11.7999C12.3141 11.6585 12.5381 11.5293 12.7686 11.4129C12.7686 11.3097 12.7686 11.1936 12.7686 11.0775C12.7622 11.0089 12.7622 10.9398 12.7686 10.8712V10.9873C12.7686 10.8583 12.7686 10.7293 12.7686 10.6004C12.7686 10.8755 12.7686 11.1464 12.7686 11.4129V11.4129C12.8277 11.4129 12.8857 11.3972 12.9369 11.3677C13.5341 11.0237 14.1741 10.7029 14.7549 10.394C15.1874 10.164 15.6986 9.91421 16.209 9.67287C16.5798 9.49753 16.8221 9.14136 16.7837 8.73297V8.73297C16.7262 8.12111 17.1895 7.58231 17.804 7.58231H19.2401C21.1769 7.58231 22.3017 9.77342 21.1727 11.3472L19.9784 13.0122L19.8494 13.1928L19.6189 13.5154C19.3967 13.8265 18.9261 13.7996 18.7408 13.4651L18.7132 13.4153C18.6886 13.3709 18.6757 13.3209 18.6757 13.2702V13.2702V13.2702C18.6757 13.2194 18.6628 13.1695 18.6382 13.1251L18.5363 12.9407C18.2415 12.4077 17.5742 12.2107 17.0531 12.526C16.9709 12.5757 16.8885 12.626 16.8056 12.6769L16.0534 13.143C15.9445 13.2105 15.8309 13.2701 15.7136 13.3215V13.3215C15.5563 13.3903 15.4059 13.474 15.2645 13.5714L14.8967 13.8248C14.652 13.9712 14.4152 14.1305 14.1874 14.302C13.9702 14.457 13.7613 14.6205 13.5541 14.7855C13.4633 14.8578 13.4323 14.982 13.478 15.0887V15.0887L13.4184 14.9597C13.4076 14.9362 13.384 14.9211 13.3581 14.9211V14.9211C13.3438 14.9211 13.33 14.9256 13.3186 14.9341C13.1269 15.0764 12.9393 15.2268 12.7557 15.3853L11.9561 16.1076C11.6557 16.3807 11.3701 16.6697 11.1006 16.9733C11.0869 16.9887 11.0673 16.9976 11.0466 16.9976V16.9976C11.0262 16.9976 11.0068 17.0062 10.9931 17.0215C10.6649 17.3886 10.3375 17.7799 10.0472 18.1713C9.94403 18.2873 9.85378 18.4163 9.76345 18.5323C8.52145 20.2207 7.5991 22.1222 7.04209 24.1428C6.84592 24.8592 6.69515 25.5871 6.59067 26.3225C6.59067 26.7868 6.59067 27.264 6.59067 27.7413C6.55523 30.7861 7.46026 33.7677 9.18227 36.2792C10.9042 38.7906 13.3593 40.7094 16.2123 41.7739L16.754 41.9544C17.0377 42.0575 17.3215 42.1349 17.6052 42.2123L18.2759 42.38L19.0111 42.509C19.7716 42.6174 20.5386 42.6734 21.3069 42.6767H21.5132C21.707 42.6767 21.9089 42.6767 22.1098 42.6655C22.4268 42.648 22.7434 42.6122 23.0609 42.6122V42.6122V42.6122C23.1639 42.6122 23.2667 42.6033 23.3681 42.5857L23.809 42.509L24.1314 42.4445L24.9955 42.2639L25.3567 42.1607L25.563 42.0963L26.7754 41.6577L26.9946 41.5675L27.5493 41.3224L28.4005 40.8968C28.5811 40.7936 28.7745 40.7033 28.9551 40.5872C29.371 40.3523 29.7677 40.0848 30.1416 39.7876L30.606 39.4265C31.1977 38.9376 31.7458 38.3982 32.244 37.8143C32.5854 37.4506 32.9002 37.0626 33.1856 36.6534C33.3532 36.4342 33.508 36.215 33.6627 35.9828L34.0883 35.2863C34.3592 34.8221 34.6043 34.3319 34.8364 33.8289C35.4003 32.5371 35.7865 31.1747 35.9843 29.779C35.9843 29.4953 36.0488 29.1987 36.0746 28.9149C36.1004 28.6311 36.0746 28.2185 36.0746 27.8702V27.7671C36.1132 27.393 36.1132 27.019 36.1132 26.645ZM21.3069 35.4669C19.8043 35.4669 18.3356 35.0214 17.0863 34.1866C15.8371 33.3519 14.8634 32.1655 14.2884 30.7773C13.7135 29.3892 13.563 27.8618 13.8561 26.3882C14.1492 24.9145 14.8727 23.561 15.9352 22.4986C16.9976 21.4361 18.3511 20.7126 19.8248 20.4195C21.2984 20.1264 22.8258 20.2769 24.2139 20.8518C25.6021 21.4267 26.7885 22.4005 27.6232 23.6497C28.458 24.899 28.9035 26.3677 28.9035 27.8702C28.9035 29.885 28.1032 31.8172 26.6785 33.2419C25.2538 34.6666 23.3216 35.4669 21.3069 35.4669Z" fill="#6F6ADC"/>
<path d="M19.8108 26.7867L21.6294 28.4118C21.8102 28.5729 21.9198 28.799 21.9343 29.0407C21.9488 29.2824 21.867 29.52 21.7067 29.7016C21.5457 29.8813 21.3209 29.9911 21.0802 30.008C20.8394 30.0249 20.6016 29.9473 20.417 29.7918L18.6242 28.1667C18.4464 28.0039 18.3389 27.7783 18.3244 27.5375C18.31 27.2968 18.3897 27.06 18.5468 26.877C18.7035 26.699 18.9238 26.5897 19.1603 26.5729C19.3968 26.5559 19.6305 26.6328 19.8108 26.7867Z" fill="#007AFF" fill-opacity="0.2"/>
<path d="M24.0926 27.3541L22.0549 29.6112C21.8514 29.8353 21.5671 29.9693 21.2647 29.9838C20.9624 29.9983 20.6667 29.8921 20.4426 29.6886C20.2186 29.485 20.0846 29.2009 20.07 28.8985C20.0555 28.5961 20.1617 28.3004 20.3652 28.0764L22.4159 25.8193C22.5163 25.7076 22.6377 25.6169 22.7733 25.5526C22.9089 25.4881 23.0559 25.4513 23.2059 25.444C23.3559 25.4369 23.5057 25.4595 23.6469 25.5106C23.7881 25.5618 23.9176 25.6403 24.0282 25.7419C24.2459 25.9498 24.3742 26.2342 24.3863 26.535C24.3983 26.8358 24.293 27.1295 24.0926 27.3541Z" fill="#6F6ADC"/>
</g>
<defs>
<linearGradient id="paint0_linear_119_6418" x1="13.7102" y1="27.8853" x2="28.9081" y2="27.8853" gradientUnits="userSpaceOnUse">
<stop offset="0.2585" stop-color="#2A97FF"/>
<stop offset="0.563" stop-color="#2A7FFF"/>
<stop offset="1" stop-color="#2A55FF"/>
</linearGradient>
</defs>
</svg>
